<?xml version="1.0" encoding="utf-8"?>
<!-- Generator: Adobe Illustrator 27.5.0, SVG Export Plug-In . SVG Version: 6.00 Build 0)  -->
<svg version="1.1" xmlns="http://www.w3.org/2000/svg" xmlns:xlink="http://www.w3.org/1999/xlink" x="0px" y="0px"
	 viewBox="0 0 500 500" style="enable-background:new 0 0 500 500;" xml:space="preserve">
<g id="BACKGROUND">
	<g>
		<rect style="fill:#60C0C0;" width="500" height="500"/>
	</g>
</g>
<g id="OBJECTS">
	<g>
		<g>
			<g>
				<g>
					<g>
						<rect x="340.921" y="416.646" style="fill:#4189A3;" width="71.27" height="9.838"/>
					</g>
					<g>
						<path style="fill:#60C0C0;" d="M412.191,426.805H372.49c-0.178,0-0.321-0.144-0.321-0.321s0.143-0.321,0.321-0.321h39.701
							c0.178,0,0.321,0.144,0.321,0.321S412.369,426.805,412.191,426.805z"/>
					</g>
					<g>
						<path style="fill:#60C0C0;" d="M383.269,426.708c-0.124,0-0.225-0.101-0.225-0.225v-9.838c0-0.124,0.101-0.225,0.225-0.225
							c0.124,0,0.225,0.101,0.225,0.225v9.838C383.494,426.608,383.393,426.708,383.269,426.708z"/>
					</g>
					<g>
						<path style="fill:#60C0C0;" d="M389.081,426.708c-0.124,0-0.225-0.101-0.225-0.225v-9.838c0-0.124,0.101-0.225,0.225-0.225
							c0.124,0,0.225,0.101,0.225,0.225v9.838C389.305,426.608,389.205,426.708,389.081,426.708z"/>
					</g>
					<g>
						<path style="fill:#60C0C0;" d="M397.071,426.708c-0.124,0-0.225-0.101-0.225-0.225v-9.838c0-0.124,0.101-0.225,0.225-0.225
							c0.124,0,0.225,0.101,0.225,0.225v9.838C397.295,426.608,397.195,426.708,397.071,426.708z"/>
					</g>
					<g>
						<path style="fill:#60C0C0;" d="M404.335,426.708c-0.124,0-0.225-0.101-0.225-0.225v-9.838c0-0.124,0.101-0.225,0.225-0.225
							c0.124,0,0.225,0.101,0.225,0.225v9.838C404.559,426.608,404.459,426.708,404.335,426.708z"/>
					</g>
				</g>
				<g>
					<g>
						<rect x="334.208" y="406.808" style="fill:#4189A3;" width="71.27" height="9.838"/>
					</g>
					<g>
						<path style="fill:#60C0C0;" d="M405.478,416.87h-39.702c-0.124,0-0.225-0.101-0.225-0.225c0-0.124,0.101-0.225,0.225-0.225
							h39.702c0.124,0,0.225,0.101,0.225,0.225C405.703,416.77,405.602,416.87,405.478,416.87z"/>
					</g>
					<g>
						<path style="fill:#60C0C0;" d="M376.556,416.87c-0.124,0-0.225-0.101-0.225-0.225v-9.838c0-0.124,0.101-0.225,0.225-0.225
							s0.225,0.101,0.225,0.225v9.838C376.781,416.77,376.68,416.87,376.556,416.87z"/>
					</g>
					<g>
						<path style="fill:#60C0C0;" d="M382.367,416.87c-0.124,0-0.225-0.101-0.225-0.225v-9.838c0-0.124,0.101-0.225,0.225-0.225
							c0.124,0,0.225,0.101,0.225,0.225v9.838C382.591,416.77,382.491,416.87,382.367,416.87z"/>
					</g>
					<g>
						<path style="fill:#60C0C0;" d="M390.358,416.87c-0.124,0-0.225-0.101-0.225-0.225v-9.838c0-0.124,0.101-0.225,0.225-0.225
							c0.124,0,0.225,0.101,0.225,0.225v9.838C390.583,416.77,390.482,416.87,390.358,416.87z"/>
					</g>
					<g>
						<path style="fill:#60C0C0;" d="M397.622,416.87c-0.124,0-0.225-0.101-0.225-0.225v-9.838c0-0.124,0.101-0.225,0.225-0.225
							s0.225,0.101,0.225,0.225v9.838C397.846,416.77,397.746,416.87,397.622,416.87z"/>
					</g>
				</g>
				<g>
					<g>
						<rect x="343.567" y="396.971" style="fill:#4189A3;" width="71.27" height="9.838"/>
					</g>
					<g>
						<path style="fill:#60C0C0;" d="M414.837,407.033H349.18c-0.124,0-0.225-0.1-0.225-0.225c0-0.124,0.101-0.225,0.225-0.225
							h65.657c0.124,0,0.225,0.101,0.225,0.225C415.062,406.932,414.962,407.033,414.837,407.033z"/>
					</g>
					<g>
						<path style="fill:#60C0C0;" d="M385.916,407.033c-0.124,0-0.225-0.1-0.225-0.225v-9.837c0-0.124,0.1-0.225,0.225-0.225
							c0.124,0,0.225,0.101,0.225,0.225v9.837C386.14,406.932,386.04,407.033,385.916,407.033z"/>
					</g>
					<g>
						<path style="fill:#60C0C0;" d="M391.726,407.033c-0.124,0-0.225-0.1-0.225-0.225v-9.837c0-0.124,0.101-0.225,0.225-0.225
							c0.124,0,0.225,0.101,0.225,0.225v9.837C391.951,406.932,391.85,407.033,391.726,407.033z"/>
					</g>
					<g>
						<path style="fill:#60C0C0;" d="M399.716,407.033c-0.124,0-0.225-0.1-0.225-0.225v-9.837c0-0.124,0.101-0.225,0.225-0.225
							c0.124,0,0.225,0.101,0.225,0.225v9.837C399.941,406.932,399.84,407.033,399.716,407.033z"/>
					</g>
					<g>
						<path style="fill:#60C0C0;" d="M406.98,407.033c-0.124,0-0.225-0.1-0.225-0.225v-9.837c0-0.124,0.101-0.225,0.225-0.225
							s0.225,0.101,0.225,0.225v9.837C407.205,406.932,407.104,407.033,406.98,407.033z"/>
					</g>
				</g>
				<g>
					<g>
						<rect x="336.187" y="387.133" style="fill:#4189A3;" width="71.27" height="9.838"/>
					</g>
					<g>
						<path style="fill:#60C0C0;" d="M407.458,397.196h-39.702c-0.124,0-0.225-0.101-0.225-0.225c0-0.124,0.101-0.225,0.225-0.225
							h39.702c0.124,0,0.225,0.101,0.225,0.225C407.682,397.095,407.582,397.196,407.458,397.196z"/>
					</g>
					<g>
						<path style="fill:#60C0C0;" d="M378.535,397.196c-0.124,0-0.225-0.101-0.225-0.225v-9.838c0-0.124,0.101-0.225,0.225-0.225
							c0.124,0,0.225,0.101,0.225,0.225v9.838C378.759,397.095,378.659,397.196,378.535,397.196z"/>
					</g>
					<g>
						<path style="fill:#60C0C0;" d="M384.346,397.196c-0.124,0-0.225-0.101-0.225-0.225v-9.838c0-0.124,0.101-0.225,0.225-0.225
							c0.124,0,0.225,0.101,0.225,0.225v9.838C384.571,397.095,384.47,397.196,384.346,397.196z"/>
					</g>
					<g>
						<path style="fill:#60C0C0;" d="M392.337,397.196c-0.124,0-0.225-0.101-0.225-0.225v-9.838c0-0.124,0.1-0.225,0.225-0.225
							c0.124,0,0.225,0.101,0.225,0.225v9.838C392.561,397.095,392.461,397.196,392.337,397.196z"/>
					</g>
					<g>
						<path style="fill:#60C0C0;" d="M399.6,397.196c-0.124,0-0.225-0.101-0.225-0.225v-9.838c0-0.124,0.101-0.225,0.225-0.225
							c0.124,0,0.225,0.101,0.225,0.225v9.838C399.825,397.095,399.724,397.196,399.6,397.196z"/>
					</g>
				</g>
				<g>
					<g>
						<rect x="349.266" y="377.295" style="fill:#479AAD;" width="71.27" height="9.838"/>
					</g>
					<g>
						<path style="fill:#60C0C0;" d="M420.536,387.358h-57.201c-0.124,0-0.225-0.101-0.225-0.225c0-0.124,0.101-0.225,0.225-0.225
							h57.201c0.124,0,0.225,0.101,0.225,0.225C420.76,387.257,420.66,387.358,420.536,387.358z"/>
					</g>
					<g>
						<path style="fill:#60C0C0;" d="M391.614,387.358c-0.124,0-0.225-0.101-0.225-0.225v-9.838c0-0.124,0.101-0.225,0.225-0.225
							c0.124,0,0.225,0.101,0.225,0.225v9.838C391.838,387.257,391.738,387.358,391.614,387.358z"/>
					</g>
					<g>
						<path style="fill:#60C0C0;" d="M397.425,387.358c-0.124,0-0.225-0.101-0.225-0.225v-9.838c0-0.124,0.101-0.225,0.225-0.225
							c0.124,0,0.225,0.101,0.225,0.225v9.838C397.65,387.257,397.549,387.358,397.425,387.358z"/>
					</g>
					<g>
						<path style="fill:#60C0C0;" d="M405.416,387.358c-0.124,0-0.225-0.101-0.225-0.225v-9.838c0-0.124,0.1-0.225,0.225-0.225
							c0.124,0,0.225,0.101,0.225,0.225v9.838C405.64,387.257,405.54,387.358,405.416,387.358z"/>
					</g>
					<g>
						<path style="fill:#60C0C0;" d="M412.679,387.358c-0.124,0-0.225-0.101-0.225-0.225v-9.838c0-0.124,0.101-0.225,0.225-0.225
							c0.124,0,0.225,0.101,0.225,0.225v9.838C412.904,387.257,412.803,387.358,412.679,387.358z"/>
					</g>
				</g>
				<g>
					<g>
						<rect x="343.567" y="367.458" style="fill:#479AAD;" width="71.27" height="9.838"/>
					</g>
					<g>
						<path style="fill:#60C0C0;" d="M414.837,377.52h-39.702c-0.124,0-0.225-0.1-0.225-0.225c0-0.124,0.101-0.225,0.225-0.225
							h39.702c0.124,0,0.225,0.101,0.225,0.225C415.062,377.419,414.962,377.52,414.837,377.52z"/>
					</g>
					<g>
						<path style="fill:#60C0C0;" d="M385.916,377.52c-0.124,0-0.225-0.1-0.225-0.225v-9.838c0-0.124,0.1-0.225,0.225-0.225
							c0.124,0,0.225,0.101,0.225,0.225v9.838C386.14,377.419,386.04,377.52,385.916,377.52z"/>
					</g>
					<g>
						<path style="fill:#60C0C0;" d="M391.726,377.52c-0.124,0-0.225-0.1-0.225-0.225v-9.838c0-0.124,0.101-0.225,0.225-0.225
							c0.124,0,0.225,0.101,0.225,0.225v9.838C391.951,377.419,391.85,377.52,391.726,377.52z"/>
					</g>
					<g>
						<path style="fill:#60C0C0;" d="M399.716,377.52c-0.124,0-0.225-0.1-0.225-0.225v-9.838c0-0.124,0.101-0.225,0.225-0.225
							c0.124,0,0.225,0.101,0.225,0.225v9.838C399.941,377.419,399.84,377.52,399.716,377.52z"/>
					</g>
					<g>
						<path style="fill:#60C0C0;" d="M406.98,377.52c-0.124,0-0.225-0.1-0.225-0.225v-9.838c0-0.124,0.101-0.225,0.225-0.225
							s0.225,0.101,0.225,0.225v9.838C407.205,377.419,407.104,377.52,406.98,377.52z"/>
					</g>
				</g>
			</g>
			<g>
				<g>
					<g>
						<rect x="355.504" y="377.358" style="fill:#4189A3;" width="71.27" height="9.838"/>
					</g>
					<g>
						<path style="fill:#60C0C0;" d="M426.775,387.42h-39.702c-0.124,0-0.225-0.101-0.225-0.225c0-0.124,0.101-0.225,0.225-0.225
							h39.702c0.124,0,0.225,0.101,0.225,0.225C427,387.32,426.899,387.42,426.775,387.42z"/>
					</g>
					<g>
						<path style="fill:#60C0C0;" d="M397.852,387.42c-0.124,0-0.225-0.101-0.225-0.225v-9.838c0-0.124,0.101-0.225,0.225-0.225
							s0.225,0.101,0.225,0.225v9.838C398.077,387.32,397.976,387.42,397.852,387.42z"/>
					</g>
					<g>
						<path style="fill:#60C0C0;" d="M403.664,387.42c-0.124,0-0.225-0.101-0.225-0.225v-9.838c0-0.124,0.101-0.225,0.225-0.225
							c0.124,0,0.225,0.101,0.225,0.225v9.838C403.888,387.32,403.788,387.42,403.664,387.42z"/>
					</g>
					<g>
						<path style="fill:#60C0C0;" d="M411.654,387.42c-0.124,0-0.225-0.101-0.225-0.225v-9.838c0-0.124,0.101-0.225,0.225-0.225
							c0.124,0,0.225,0.101,0.225,0.225v9.838C411.879,387.32,411.778,387.42,411.654,387.42z"/>
					</g>
					<g>
						<path style="fill:#60C0C0;" d="M418.918,387.42c-0.124,0-0.225-0.101-0.225-0.225v-9.838c0-0.124,0.101-0.225,0.225-0.225
							s0.225,0.101,0.225,0.225v9.838C419.142,387.32,419.042,387.42,418.918,387.42z"/>
					</g>
				</g>
				<g>
					<g>
						<rect x="348.791" y="367.52" style="fill:#4189A3;" width="71.27" height="9.838"/>
					</g>
					<g>
						<path style="fill:#60C0C0;" d="M420.062,377.582H380.36c-0.124,0-0.225-0.1-0.225-0.225c0-0.124,0.101-0.225,0.225-0.225
							h39.702c0.124,0,0.225,0.101,0.225,0.225C420.287,377.482,420.186,377.582,420.062,377.582z"/>
					</g>
					<g>
						<path style="fill:#60C0C0;" d="M391.139,377.582c-0.124,0-0.225-0.1-0.225-0.225v-9.838c0-0.124,0.101-0.225,0.225-0.225
							s0.225,0.101,0.225,0.225v9.838C391.364,377.482,391.263,377.582,391.139,377.582z"/>
					</g>
					<g>
						<path style="fill:#60C0C0;" d="M396.951,377.582c-0.124,0-0.225-0.1-0.225-0.225v-9.838c0-0.124,0.101-0.225,0.225-0.225
							s0.225,0.101,0.225,0.225v9.838C397.175,377.482,397.075,377.582,396.951,377.582z"/>
					</g>
					<g>
						<path style="fill:#60C0C0;" d="M404.941,377.582c-0.124,0-0.225-0.1-0.225-0.225v-9.838c0-0.124,0.101-0.225,0.225-0.225
							c0.124,0,0.225,0.101,0.225,0.225v9.838C405.166,377.482,405.065,377.582,404.941,377.582z"/>
					</g>
					<g>
						<path style="fill:#60C0C0;" d="M412.205,377.582c-0.124,0-0.225-0.1-0.225-0.225v-9.838c0-0.124,0.101-0.225,0.225-0.225
							c0.124,0,0.225,0.101,0.225,0.225v9.838C412.429,377.482,412.329,377.582,412.205,377.582z"/>
					</g>
				</g>
				<g>
					<g>
						<rect x="358.15" y="357.683" style="fill:#4189A3;" width="71.27" height="9.838"/>
					</g>
					<g>
						<path style="fill:#60C0C0;" d="M429.42,367.745h-65.657c-0.124,0-0.225-0.101-0.225-0.225c0-0.124,0.101-0.225,0.225-0.225
							h65.657c0.124,0,0.225,0.101,0.225,0.225C429.645,367.644,429.545,367.745,429.42,367.745z"/>
					</g>
					<g>
						<path style="fill:#60C0C0;" d="M400.499,367.745c-0.124,0-0.225-0.101-0.225-0.225v-9.837c0-0.124,0.1-0.225,0.225-0.225
							c0.124,0,0.225,0.101,0.225,0.225v9.837C400.723,367.644,400.623,367.745,400.499,367.745z"/>
					</g>
					<g>
						<path style="fill:#60C0C0;" d="M406.309,367.745c-0.124,0-0.225-0.101-0.225-0.225v-9.837c0-0.124,0.101-0.225,0.225-0.225
							s0.225,0.101,0.225,0.225v9.837C406.534,367.644,406.433,367.745,406.309,367.745z"/>
					</g>
					<g>
						<path style="fill:#60C0C0;" d="M414.3,367.745c-0.124,0-0.225-0.101-0.225-0.225v-9.837c0-0.124,0.101-0.225,0.225-0.225
							c0.124,0,0.225,0.101,0.225,0.225v9.837C414.525,367.644,414.424,367.745,414.3,367.745z"/>
					</g>
					<g>
						<path style="fill:#60C0C0;" d="M421.564,367.745c-0.124,0-0.225-0.101-0.225-0.225v-9.837c0-0.124,0.101-0.225,0.225-0.225
							c0.124,0,0.225,0.101,0.225,0.225v9.837C421.789,367.644,421.688,367.745,421.564,367.745z"/>
					</g>
				</g>
				<g>
					<g>
						<rect x="350.77" y="347.845" style="fill:#4189A3;" width="71.27" height="9.838"/>
					</g>
					<g>
						<path style="fill:#60C0C0;" d="M422.041,357.908h-39.702c-0.124,0-0.225-0.1-0.225-0.225c0-0.124,0.101-0.225,0.225-0.225
							h39.702c0.124,0,0.225,0.101,0.225,0.225C422.265,357.807,422.165,357.908,422.041,357.908z"/>
					</g>
					<g>
						<path style="fill:#60C0C0;" d="M393.119,357.908c-0.124,0-0.225-0.1-0.225-0.225v-9.838c0-0.124,0.101-0.225,0.225-0.225
							s0.225,0.101,0.225,0.225v9.838C393.343,357.807,393.243,357.908,393.119,357.908z"/>
					</g>
					<g>
						<path style="fill:#60C0C0;" d="M398.929,357.908c-0.124,0-0.225-0.1-0.225-0.225v-9.838c0-0.124,0.101-0.225,0.225-0.225
							c0.124,0,0.225,0.101,0.225,0.225v9.838C399.154,357.807,399.053,357.908,398.929,357.908z"/>
					</g>
					<g>
						<path style="fill:#60C0C0;" d="M406.92,357.908c-0.124,0-0.225-0.1-0.225-0.225v-9.838c0-0.124,0.1-0.225,0.225-0.225
							c0.124,0,0.225,0.101,0.225,0.225v9.838C407.144,357.807,407.044,357.908,406.92,357.908z"/>
					</g>
					<g>
						<path style="fill:#60C0C0;" d="M414.184,357.908c-0.124,0-0.225-0.1-0.225-0.225v-9.838c0-0.124,0.101-0.225,0.225-0.225
							s0.225,0.101,0.225,0.225v9.838C414.409,357.807,414.308,357.908,414.184,357.908z"/>
					</g>
				</g>
				<g>
					<g>
						<rect x="363.849" y="338.007" style="fill:#4189A3;" width="71.27" height="9.838"/>
					</g>
					<g>
						<path style="fill:#60C0C0;" d="M435.12,348.07h-57.201c-0.124,0-0.225-0.101-0.225-0.225c0-0.124,0.101-0.225,0.225-0.225
							h57.201c0.124,0,0.225,0.101,0.225,0.225C435.344,347.969,435.244,348.07,435.12,348.07z"/>
					</g>
					<g>
						<path style="fill:#60C0C0;" d="M406.197,348.07c-0.124,0-0.225-0.101-0.225-0.225v-9.838c0-0.124,0.101-0.225,0.225-0.225
							s0.225,0.101,0.225,0.225v9.838C406.421,347.969,406.321,348.07,406.197,348.07z"/>
					</g>
					<g>
						<path style="fill:#60C0C0;" d="M412.008,348.07c-0.124,0-0.225-0.101-0.225-0.225v-9.838c0-0.124,0.101-0.225,0.225-0.225
							c0.124,0,0.225,0.101,0.225,0.225v9.838C412.233,347.969,412.132,348.07,412.008,348.07z"/>
					</g>
					<g>
						<path style="fill:#60C0C0;" d="M419.999,348.07c-0.124,0-0.225-0.101-0.225-0.225v-9.838c0-0.124,0.1-0.225,0.225-0.225
							c0.124,0,0.225,0.101,0.225,0.225v9.838C420.223,347.969,420.123,348.07,419.999,348.07z"/>
					</g>
					<g>
						<path style="fill:#60C0C0;" d="M427.262,348.07c-0.124,0-0.225-0.101-0.225-0.225v-9.838c0-0.124,0.101-0.225,0.225-0.225
							c0.124,0,0.225,0.101,0.225,0.225v9.838C427.487,347.969,427.386,348.07,427.262,348.07z"/>
					</g>
				</g>
				<g>
					<g>
						<rect x="358.15" y="328.17" style="fill:#4189A3;" width="71.27" height="9.838"/>
					</g>
					<g>
						<path style="fill:#60C0C0;" d="M429.42,338.232h-39.702c-0.124,0-0.225-0.101-0.225-0.225c0-0.124,0.101-0.225,0.225-0.225
							h39.702c0.124,0,0.225,0.101,0.225,0.225C429.645,338.131,429.545,338.232,429.42,338.232z"/>
					</g>
					<g>
						<path style="fill:#60C0C0;" d="M400.499,338.232c-0.124,0-0.225-0.101-0.225-0.225v-9.837c0-0.124,0.1-0.225,0.225-0.225
							c0.124,0,0.225,0.101,0.225,0.225v9.837C400.723,338.131,400.623,338.232,400.499,338.232z"/>
					</g>
					<g>
						<path style="fill:#60C0C0;" d="M406.309,338.232c-0.124,0-0.225-0.101-0.225-0.225v-9.837c0-0.124,0.101-0.225,0.225-0.225
							s0.225,0.101,0.225,0.225v9.837C406.534,338.131,406.433,338.232,406.309,338.232z"/>
					</g>
					<g>
						<path style="fill:#60C0C0;" d="M414.3,338.232c-0.124,0-0.225-0.101-0.225-0.225v-9.837c0-0.124,0.101-0.225,0.225-0.225
							c0.124,0,0.225,0.101,0.225,0.225v9.837C414.525,338.131,414.424,338.232,414.3,338.232z"/>
					</g>
					<g>
						<path style="fill:#60C0C0;" d="M421.564,338.232c-0.124,0-0.225-0.101-0.225-0.225v-9.837c0-0.124,0.101-0.225,0.225-0.225
							c0.124,0,0.225,0.101,0.225,0.225v9.837C421.789,338.131,421.688,338.232,421.564,338.232z"/>
					</g>
				</g>
				<g>
					<g>
						<rect x="352.858" y="318.332" style="fill:#4189A3;" width="71.27" height="9.838"/>
					</g>
					<g>
						<path style="fill:#60C0C0;" d="M424.129,328.395h-51.053c-0.124,0-0.225-0.1-0.225-0.225c0-0.124,0.101-0.225,0.225-0.225
							h51.053c0.124,0,0.225,0.101,0.225,0.225C424.353,328.294,424.253,328.395,424.129,328.395z"/>
					</g>
					<g>
						<path style="fill:#60C0C0;" d="M395.206,328.395c-0.124,0-0.225-0.1-0.225-0.225v-9.838c0-0.124,0.101-0.225,0.225-0.225
							c0.124,0,0.225,0.101,0.225,0.225v9.838C395.43,328.294,395.33,328.395,395.206,328.395z"/>
					</g>
					<g>
						<path style="fill:#60C0C0;" d="M401.017,328.395c-0.124,0-0.225-0.1-0.225-0.225v-9.838c0-0.124,0.101-0.225,0.225-0.225
							c0.124,0,0.225,0.101,0.225,0.225v9.838C401.242,328.294,401.141,328.395,401.017,328.395z"/>
					</g>
					<g>
						<path style="fill:#60C0C0;" d="M409.007,328.395c-0.124,0-0.225-0.1-0.225-0.225v-9.838c0-0.124,0.1-0.225,0.225-0.225
							c0.124,0,0.225,0.101,0.225,0.225v9.838C409.232,328.294,409.131,328.395,409.007,328.395z"/>
					</g>
					<g>
						<path style="fill:#60C0C0;" d="M416.272,328.395c-0.124,0-0.225-0.1-0.225-0.225v-9.838c0-0.124,0.101-0.225,0.225-0.225
							c0.124,0,0.225,0.101,0.225,0.225v9.838C416.497,328.294,416.396,328.395,416.272,328.395z"/>
					</g>
				</g>
				<g>
					<g>
						<rect x="361.55" y="308.495" style="fill:#4189A3;" width="71.27" height="9.838"/>
					</g>
					<g>
						<path style="fill:#60C0C0;" d="M432.82,318.557h-39.701c-0.124,0-0.225-0.101-0.225-0.225c0-0.124,0.101-0.225,0.225-0.225
							h39.701c0.124,0,0.225,0.101,0.225,0.225C433.045,318.456,432.944,318.557,432.82,318.557z"/>
					</g>
					<g>
						<path style="fill:#60C0C0;" d="M403.898,318.557c-0.124,0-0.225-0.101-0.225-0.225v-9.838c0-0.124,0.101-0.225,0.225-0.225
							s0.225,0.101,0.225,0.225v9.838C404.123,318.456,404.022,318.557,403.898,318.557z"/>
					</g>
					<g>
						<path style="fill:#60C0C0;" d="M409.71,318.557c-0.124,0-0.225-0.101-0.225-0.225v-9.838c0-0.124,0.101-0.225,0.225-0.225
							c0.124,0,0.225,0.101,0.225,0.225v9.838C409.934,318.456,409.834,318.557,409.71,318.557z"/>
					</g>
					<g>
						<path style="fill:#60C0C0;" d="M417.7,318.557c-0.124,0-0.225-0.101-0.225-0.225v-9.838c0-0.124,0.101-0.225,0.225-0.225
							c0.124,0,0.225,0.101,0.225,0.225v9.838C417.924,318.456,417.824,318.557,417.7,318.557z"/>
					</g>
					<g>
						<path style="fill:#60C0C0;" d="M424.963,318.557c-0.124,0-0.225-0.101-0.225-0.225v-9.838c0-0.124,0.101-0.225,0.225-0.225
							s0.225,0.101,0.225,0.225v9.838C425.188,318.456,425.087,318.557,424.963,318.557z"/>
					</g>
				</g>
				<g>
					<g>
						<rect x="354.837" y="298.657" style="fill:#4189A3;" width="71.27" height="9.838"/>
					</g>
					<g>
						<path style="fill:#60C0C0;" d="M426.107,308.719h-55.449c-0.124,0-0.225-0.101-0.225-0.225c0-0.124,0.101-0.225,0.225-0.225
							h55.449c0.124,0,0.225,0.101,0.225,0.225C426.332,308.618,426.231,308.719,426.107,308.719z"/>
					</g>
					<g>
						<path style="fill:#60C0C0;" d="M397.185,308.719c-0.124,0-0.225-0.101-0.225-0.225v-9.838c0-0.124,0.101-0.225,0.225-0.225
							s0.225,0.1,0.225,0.225v9.838C397.41,308.618,397.309,308.719,397.185,308.719z"/>
					</g>
					<g>
						<path style="fill:#60C0C0;" d="M402.996,308.719c-0.124,0-0.225-0.101-0.225-0.225v-9.838c0-0.124,0.101-0.225,0.225-0.225
							c0.124,0,0.225,0.1,0.225,0.225v9.838C403.22,308.618,403.12,308.719,402.996,308.719z"/>
					</g>
					<g>
						<path style="fill:#60C0C0;" d="M410.987,308.719c-0.124,0-0.225-0.101-0.225-0.225v-9.838c0-0.124,0.101-0.225,0.225-0.225
							c0.124,0,0.225,0.1,0.225,0.225v9.838C411.212,308.618,411.111,308.719,410.987,308.719z"/>
					</g>
					<g>
						<path style="fill:#60C0C0;" d="M418.251,308.719c-0.124,0-0.225-0.101-0.225-0.225v-9.838c0-0.124,0.101-0.225,0.225-0.225
							s0.225,0.1,0.225,0.225v9.838C418.475,308.618,418.375,308.719,418.251,308.719z"/>
					</g>
				</g>
			</g>
			<g>
				<g>
					<g>
						
							<ellipse transform="matrix(0.9996 -0.0267 0.0267 0.9996 -10.1814 11.6741)" style="fill:#4189A3;" cx="431.781" cy="386.848" rx="40.026" ry="40.708"/>
					</g>
					<g>
						<path style="fill:#60C0C0;" d="M431.789,422.463c-4.235,0-8.373-0.764-12.315-2.272
							c-13.409-5.128-22.325-17.848-22.716-32.404c-0.255-9.506,3.146-18.542,9.577-25.442c6.436-6.906,15.134-10.848,24.492-11.099
							c12.737-0.335,24.683,6.392,31.16,17.573c2.989,5.159,4.655,11.068,4.817,17.09v0.001c0.213,7.966-2.115,15.564-6.733,21.977
							c-6.455,8.962-16.419,14.27-27.336,14.564C432.42,422.458,432.104,422.463,431.789,422.463z M431.754,353.234
							c-0.291,0-0.581,0.004-0.873,0.012c-8.818,0.236-17.016,3.951-23.082,10.462c-6.071,6.515-9.282,15.047-9.041,24.026
							c0.368,13.744,8.78,25.751,21.431,30.59c3.989,1.526,8.196,2.258,12.494,2.127c10.287-0.275,19.678-5.282,25.766-13.733
							c4.36-6.054,6.559-13.23,6.356-20.755v0.001c-0.152-5.689-1.725-11.271-4.548-16.143
							C454.295,359.531,443.433,353.234,431.754,353.234z"/>
					</g>
					<g>
						<path style="fill:#60C0C0;" d="M443.752,391.049c-0.673-1.339-1.715-2.523-3.107-3.565c-1.309-0.972-3.318-1.997-6.004-3.087
							c-0.184-0.077-0.368-0.144-0.552-0.222c-2.532-0.98-4.322-1.785-5.37-2.425c-0.041-0.019-0.082-0.039-0.123-0.069
							c-1.018-0.641-1.754-1.33-2.218-2.068c-0.454-0.748-0.701-1.646-0.729-2.704c-0.041-1.541,0.481-2.788,1.546-3.762
							c0.365-0.328,0.782-0.607,1.272-0.815c0.938-0.436,2.104-0.673,3.508-0.711c0.747-0.02,1.526,0.01,2.327,0.102
							c1.449,0.156,2.994,0.485,4.635,0.996c1.477,0.454,3.054-0.308,3.58-1.781l0.009-0.031c0.544-1.546-0.26-3.282-1.798-3.754
							c-2.191-0.681-4.384-1.085-6.581-1.211l-0.065-2.444c-0.022-0.822-0.365-1.552-0.915-2.082
							c-0.549-0.52-1.285-0.829-2.093-0.807c-1.606,0.043-2.883,1.403-2.839,3.046l0.071,2.67c-2.311,0.494-4.237,1.409-5.797,2.756
							c-2.321,2.015-3.43,4.717-3.339,8.116c0.073,2.711,0.882,5.012,2.428,6.903c1.473,1.8,3.91,3.369,7.311,4.716
							c0.184,0.077,0.368,0.155,0.552,0.221c2.287,0.864,4.076,1.658,5.369,2.395c0.729,0.412,1.315,0.797,1.729,1.177
							c1.159,1.028,1.76,2.306,1.8,3.826c0.045,1.684-0.524,3.046-1.73,4.085c-0.425,0.361-0.932,0.672-1.532,0.904
							c-1.099,0.461-2.487,0.704-4.163,0.749c-0.545,0.015-1.101,0.009-1.668-0.027c-1.295-0.068-2.654-0.258-4.087-0.569
							c-0.711-0.156-1.403-0.322-2.085-0.52c-0.295-0.085-0.579-0.118-0.862-0.111c-1.545,0.042-2.854,1.361-2.809,3.035
							c0.033,1.242,0.811,2.352,1.963,2.733c2.293,0.73,4.961,1.1,8.033,1.11l0.064,2.372c0.044,1.643,1.392,2.933,2.998,2.89
							c1.616-0.043,2.893-1.403,2.849-3.047l-0.074-2.773c2.38-0.547,4.366-1.484,5.957-2.832c2.52-2.133,3.726-5.002,3.629-8.617
							C444.79,393.981,444.424,392.387,443.752,391.049z"/>
					</g>
				</g>
				<g>
					<path style="fill:#60C0C0;" d="M413.2,422.827c-0.08,0-0.161-0.019-0.236-0.06c-13.302-7.124-21.565-20.915-21.565-35.991
						c0-22.498,18.304-40.801,40.802-40.801c0.978,0,1.97,0.035,2.947,0.104c0.275,0.02,0.483,0.259,0.464,0.534
						c-0.02,0.276-0.274,0.484-0.534,0.464c-0.955-0.068-1.923-0.103-2.877-0.103c-21.946,0-39.802,17.854-39.802,39.801
						c0,14.706,8.061,28.16,21.038,35.11c0.243,0.13,0.335,0.433,0.204,0.677C413.55,422.731,413.378,422.827,413.2,422.827z"/>
				</g>
			</g>
		</g>
		<g>
			<g>
				<path style="fill:#5AB1B7;" d="M87.534,449.512l-23.273,1.422c0.078-1.806,2.013-44.784,11.134-94.591
					c12.55-68.53,32.109-114.593,58.133-136.913c9.975-8.554,26.668-22.871,48.792-28.267c26.405-6.44,52.854,1.605,78.597,23.916
					c15.056,13.049,33.487,17.091,54.795,12.022c45.138-10.746,92.13-59.513,121.614-125.483c1.439-3.22,23.262,6.085,21.756,9.462
					c-15.49,34.741-35.716,65.568-58.889,89.653c-25.016,26.001-52.33,43.099-78.987,49.445
					c-28.742,6.846-54.965,0.906-75.825-17.173c-41.876-36.292-71.722-16.742-96.41,4.432
					c-21.452,18.398-38.809,60.9-50.194,122.912C89.924,408.58,87.553,449.084,87.534,449.512z"/>
			</g>
			<g>
				<path style="fill:#5AB1B7;" d="M456.326,75.69l-39.276,39.579c-1.764,1.778-1.093,4.785,1.259,5.644l39.144,14.305
					c2.237,0.818,4.607-0.835,4.612-3.217l0.132-53.884C462.205,75.047,458.488,73.511,456.326,75.69z"/>
			</g>
		</g>
		<g>
			<g>
				
					<rect x="221.625" y="167.84" transform="matrix(0.9685 0.2491 -0.2491 0.9685 59.3561 -66.8475)" style="fill:#5AB1B7;" width="144.296" height="66.469"/>
			</g>
			<g>
				<g>
					<path style="fill:#60C0C0;" d="M234.425,154.714l-15.004,58.329l133.699,34.393l15.004-58.329L234.425,154.714z
						 M351.773,245.156L221.7,211.696l14.072-54.703l130.073,33.46L351.773,245.156z"/>
				</g>
				<g>
					<path style="fill:#60C0C0;" d="M251.922,162.816c-1.982,7.705-9.832,12.348-17.537,10.366c-0.895-0.23-1.743-0.539-2.541-0.918
						c-0.593-0.275-1.157-0.587-1.692-0.938l4.273-16.613l17.948,4.617c-0.001,0.631-0.048,1.263-0.14,1.897
						C252.162,161.757,252.058,162.285,251.922,162.816z"/>
				</g>
				<g>
					<path style="fill:#60C0C0;" d="M368.124,189.107l-4.273,16.613c-0.637,0.049-1.282,0.05-1.934,0.005
						c-0.882-0.053-1.774-0.192-2.662-0.421c-7.705-1.982-12.346-9.838-10.364-17.543c0.137-0.532,0.301-1.044,0.493-1.542
						c0.225-0.599,0.489-1.176,0.793-1.729L368.124,189.107z"/>
				</g>
				<g>
					<path style="fill:#60C0C0;" d="M238.655,214.389c-0.137,0.532-0.301,1.044-0.493,1.542c-0.225,0.599-0.491,1.182-0.793,1.729
						l-17.948-4.617l4.272-16.607c0.637-0.049,1.284-0.056,1.934-0.005c0.882,0.053,1.774,0.192,2.668,0.422
						C236,198.835,240.636,206.69,238.655,214.389z"/>
				</g>
				<g>
					<path style="fill:#60C0C0;" d="M357.392,230.829l-4.272,16.607l-17.948-4.617c0-0.625,0.048-1.263,0.14-1.897
						c0.072-0.529,0.175-1.057,0.312-1.589c1.98-7.699,9.837-12.34,17.542-10.358c0.888,0.229,1.737,0.537,2.535,0.916
						C356.295,230.16,356.857,230.479,357.392,230.829z"/>
				</g>
			</g>
			<g>
				
					<ellipse transform="matrix(0.9316 -0.3635 0.3635 0.9316 -52.9952 120.5425)" style="fill:#60C0C0;" cx="293.773" cy="201.075" rx="24.319" ry="24.319"/>
			</g>
			<g>
				<path style="fill:#5AB1B7;" d="M301.053,206.333c-0.173-1.01-0.623-1.997-1.333-2.963c-0.67-0.903-1.792-1.985-3.35-3.249
					c-0.106-0.088-0.214-0.17-0.32-0.258c-1.478-1.161-2.501-2.055-3.065-2.688c-0.023-0.021-0.046-0.042-0.068-0.07
					c-0.544-0.627-0.891-1.228-1.049-1.804c-0.149-0.581-0.13-1.217,0.067-1.911c0.286-1.012,0.886-1.716,1.79-2.131
					c0.309-0.139,0.642-0.234,1.008-0.269c0.71-0.091,1.531-0.004,2.469,0.261c0.499,0.141,1.009,0.322,1.521,0.546
					c0.928,0.401,1.885,0.934,2.868,1.605c0.887,0.6,2.086,0.429,2.734-0.422l0.013-0.018c0.675-0.895,0.496-2.191-0.428-2.816
					c-1.313-0.895-2.684-1.611-4.114-2.146l0.454-1.605c0.152-0.54,0.074-1.086-0.183-1.545c-0.258-0.452-0.683-0.805-1.222-0.958
					c-1.073-0.303-2.196,0.319-2.501,1.398l-0.496,1.754c-1.632-0.155-3.094,0.043-4.402,0.599
					c-1.947,0.833-3.232,2.364-3.864,4.597c-0.503,1.781-0.435,3.446,0.205,4.997c0.61,1.476,1.905,3.001,3.885,4.58
					c0.106,0.088,0.212,0.177,0.32,0.258c1.339,1.034,2.363,1.921,3.07,2.667c0.399,0.419,0.709,0.791,0.906,1.123
					c0.559,0.909,0.697,1.865,0.414,2.864c-0.313,1.106-0.967,1.876-1.977,2.304c-0.355,0.147-0.754,0.246-1.199,0.273
					c-0.822,0.074-1.791-0.055-2.911-0.371c-0.364-0.103-0.731-0.221-1.1-0.362c-0.844-0.311-1.706-0.715-2.593-1.214
					c-0.44-0.248-0.864-0.499-1.276-0.769c-0.178-0.116-0.36-0.197-0.548-0.25c-1.032-0.292-2.168,0.298-2.479,1.398
					c-0.231,0.816,0.059,1.699,0.745,2.185c1.371,0.948,3.063,1.74,5.097,2.38l-0.44,1.558c-0.305,1.079,0.326,2.197,1.398,2.501
					c1.079,0.305,2.202-0.317,2.508-1.396l0.515-1.821c1.688,0.135,3.194-0.066,4.523-0.615c2.103-0.87,3.486-2.489,4.158-4.864
					C301.145,208.457,301.226,207.343,301.053,206.333z"/>
			</g>
		</g>
		<g>
			<g>
				
					<rect x="230.065" y="110" transform="matrix(0.9737 -0.228 0.228 0.9737 -24.7007 72.6916)" style="fill:#5AB1B7;" width="144.296" height="66.469"/>
			</g>
			<g>
				<g>
					<path style="fill:#60C0C0;" d="M228.138,129.655l13.735,58.641l134.414-31.482l-13.734-58.641L228.138,129.655z
						 M374.038,155.419l-130.769,30.628l-12.881-54.995l130.769-30.628L374.038,155.419z"/>
				</g>
				<g>
					<path style="fill:#60C0C0;" d="M247.397,128.727c1.814,7.746-2.99,15.498-10.737,17.313c-0.899,0.211-1.794,0.33-2.677,0.364
						c-0.653,0.031-1.297,0.015-1.934-0.047l-3.912-16.702l18.044-4.226c0.291,0.56,0.543,1.142,0.755,1.746
						C247.119,127.677,247.272,128.193,247.397,128.727z"/>
				</g>
				<g>
					<path style="fill:#60C0C0;" d="M362.553,98.174l3.912,16.702c-0.542,0.339-1.113,0.639-1.712,0.901
						c-0.806,0.362-1.661,0.652-2.554,0.861c-7.746,1.814-15.5-2.996-17.314-10.743c-0.125-0.535-0.217-1.064-0.277-1.595
						c-0.078-0.635-0.111-1.269-0.099-1.899L362.553,98.174z"/>
				</g>
				<g>
					<path style="fill:#60C0C0;" d="M259.541,180.576c0.125,0.535,0.217,1.064,0.277,1.595c0.078,0.635,0.113,1.275,0.099,1.9
						l-18.044,4.226l-3.91-16.696c0.542-0.338,1.111-0.645,1.712-0.901c0.806-0.362,1.661-0.652,2.56-0.862
						C249.981,168.023,257.728,172.835,259.541,180.576z"/>
				</g>
				<g>
					<path style="fill:#60C0C0;" d="M372.377,140.119l3.91,16.695l-18.044,4.226c-0.29-0.554-0.543-1.142-0.755-1.746
						c-0.182-0.502-0.334-1.018-0.46-1.552c-1.813-7.74,2.998-15.494,10.744-17.308c0.893-0.209,1.788-0.329,2.671-0.363
						C371.095,140.035,371.741,140.057,372.377,140.119z"/>
				</g>
			</g>
			<g>
				
					<ellipse transform="matrix(0.5383 -0.8428 0.8428 0.5383 18.8244 320.8295)" style="fill:#60C0C0;" cx="302.213" cy="143.235" rx="24.319" ry="24.319"/>
			</g>
			<g>
				<path style="fill:#5AB1B7;" d="M311.101,144.52c-0.622-0.815-1.477-1.481-2.555-2.008c-1.012-0.49-2.508-0.929-4.474-1.326
					c-0.135-0.029-0.268-0.051-0.404-0.08c-1.848-0.344-3.168-0.662-3.961-0.961c-0.03-0.008-0.061-0.016-0.092-0.031
					c-0.773-0.304-1.359-0.675-1.766-1.113c-0.401-0.446-0.679-1.018-0.827-1.725c-0.215-1.029-0.01-1.931,0.599-2.718
					c0.209-0.266,0.46-0.504,0.769-0.705c0.587-0.41,1.355-0.713,2.308-0.913c0.508-0.106,1.043-0.183,1.601-0.221
					c1.008-0.075,2.103-0.046,3.285,0.093c1.064,0.121,2.047-0.586,2.228-1.641l0.003-0.022c0.184-1.106-0.576-2.171-1.684-2.298
					c-1.578-0.185-3.125-0.184-4.64,0.005l-0.342-1.633c-0.115-0.549-0.438-0.997-0.878-1.285c-0.438-0.281-0.978-0.397-1.527-0.282
					c-1.091,0.228-1.798,1.3-1.568,2.398l0.373,1.784c-1.518,0.619-2.721,1.472-3.623,2.57c-1.34,1.641-1.769,3.593-1.293,5.864
					c0.379,1.811,1.212,3.256,2.497,4.333c1.225,1.026,3.079,1.776,5.565,2.258c0.135,0.029,0.27,0.058,0.404,0.08
					c1.666,0.296,2.985,0.607,3.957,0.941c0.547,0.186,0.995,0.372,1.324,0.575c0.916,0.546,1.482,1.33,1.694,2.345
					c0.236,1.125,0.012,2.11-0.684,2.958c-0.246,0.295-0.554,0.567-0.936,0.797c-0.694,0.446-1.612,0.782-2.751,1.02
					c-0.37,0.077-0.751,0.143-1.142,0.189c-0.893,0.115-1.844,0.157-2.86,0.126c-0.505-0.016-0.997-0.042-1.487-0.09
					c-0.212-0.02-0.41-0.007-0.602,0.033c-1.05,0.22-1.783,1.269-1.549,2.387c0.174,0.83,0.84,1.479,1.672,1.591
					c1.654,0.205,3.521,0.122,5.619-0.253l0.332,1.585c0.23,1.098,1.307,1.796,2.398,1.568c1.098-0.23,1.804-1.302,1.575-2.4
					l-0.388-1.853c1.559-0.663,2.8-1.539,3.723-2.641c1.461-1.745,1.936-3.822,1.43-6.237
					C312.167,146.36,311.723,145.336,311.101,144.52z"/>
			</g>
		</g>
		<g>
			<g>
				
					<rect x="181.586" y="78.966" transform="matrix(0.7119 -0.7023 0.7023 0.7119 -5.6976 210.5118)" style="fill:#5AB1B7;" width="144.296" height="66.469"/>
			</g>
			<g>
				<g>
					<path style="fill:#60C0C0;" d="M183.445,139.236l42.296,42.877l98.281-96.949l-42.296-42.877L183.445,139.236z M321.375,85.146
						l-95.616,94.32l-39.667-40.212l95.616-94.32L321.375,85.146z"/>
				</g>
				<g>
					<path style="fill:#60C0C0;" d="M199.395,128.403c5.587,5.664,5.529,14.784-0.135,20.371c-0.657,0.648-1.359,1.217-2.094,1.706
						c-0.541,0.367-1.099,0.69-1.674,0.968l-12.046-12.212l13.194-13.015c0.54,0.326,1.059,0.691,1.555,1.096
						C198.61,127.651,199.009,128.012,199.395,128.403z"/>
				</g>
				<g>
					<path style="fill:#60C0C0;" d="M281.726,42.287l12.046,12.212c-0.286,0.572-0.616,1.125-0.991,1.661
						c-0.499,0.729-1.077,1.422-1.73,2.066c-5.664,5.587-14.788,5.525-20.376-0.139c-0.386-0.391-0.74-0.795-1.068-1.216
						c-0.398-0.501-0.756-1.024-1.075-1.569L281.726,42.287z"/>
				</g>
				<g>
					<path style="fill:#60C0C0;" d="M236.791,166.313c0.386,0.391,0.74,0.795,1.068,1.216c0.398,0.501,0.761,1.029,1.075,1.569
						l-13.194,13.015l-12.042-12.207c0.286-0.572,0.612-1.13,0.991-1.661c0.499-0.729,1.077-1.422,1.735-2.071
						C222.089,160.587,231.209,160.654,236.791,166.313z"/>
				</g>
				<g>
					<path style="fill:#60C0C0;" d="M311.98,72.957l12.042,12.207l-13.194,13.015c-0.536-0.321-1.059-0.691-1.555-1.096
						c-0.417-0.334-0.816-0.694-1.202-1.085c-5.583-5.66-5.52-14.784,0.143-20.371c0.653-0.644,1.354-1.213,2.09-1.702
						C310.842,73.554,311.405,73.235,311.98,72.957z"/>
				</g>
			</g>
			<g>
				
					<ellipse transform="matrix(0.9868 -0.1617 0.1617 0.9868 -14.8013 42.4962)" style="fill:#60C0C0;" cx="253.734" cy="112.2" rx="24.319" ry="24.319"/>
			</g>
			<g>
				<path style="fill:#5AB1B7;" d="M261.988,108.663c-0.956-0.371-2.033-0.494-3.227-0.381c-1.119,0.11-2.624,0.515-4.51,1.201
					c-0.13,0.046-0.256,0.096-0.386,0.142c-1.756,0.67-3.048,1.087-3.881,1.245c-0.03,0.009-0.06,0.018-0.095,0.022
					c-0.818,0.144-1.512,0.133-2.087-0.029c-0.575-0.171-1.11-0.515-1.605-1.041c-0.721-0.766-1.016-1.643-0.907-2.631
					c0.04-0.336,0.13-0.67,0.289-1.003c0.288-0.656,0.784-1.315,1.494-1.983c0.378-0.355,0.795-0.7,1.251-1.023
					c0.821-0.59,1.77-1.136,2.852-1.634c0.971-0.451,1.441-1.568,1.045-2.562l-0.009-0.02c-0.419-1.039-1.624-1.552-2.635-1.082
					c-1.443,0.665-2.763,1.473-3.957,2.423l-1.143-1.215c-0.384-0.408-0.894-0.622-1.419-0.638c-0.52-0.011-1.042,0.172-1.45,0.556
					c-0.812,0.764-0.856,2.047-0.087,2.864l1.249,1.327c-0.973,1.319-1.555,2.675-1.751,4.082c-0.287,2.099,0.364,3.988,1.954,5.678
					c1.268,1.348,2.731,2.146,4.39,2.395c1.58,0.237,3.553-0.09,5.926-0.975c0.13-0.045,0.261-0.091,0.386-0.142
					c1.576-0.616,2.863-1.038,3.867-1.26c0.564-0.127,1.043-0.201,1.429-0.199c1.067-0.012,1.958,0.362,2.669,1.118
					c0.788,0.837,1.111,1.794,0.958,2.881c-0.056,0.38-0.177,0.773-0.383,1.169c-0.36,0.743-0.968,1.508-1.816,2.305
					c-0.276,0.259-0.566,0.513-0.876,0.757c-0.702,0.564-1.491,1.095-2.375,1.599c-0.439,0.249-0.873,0.484-1.316,0.699
					c-0.191,0.093-0.354,0.207-0.496,0.342c-0.781,0.735-0.86,2.012-0.077,2.844c0.581,0.618,1.487,0.824,2.256,0.486
					c1.519-0.688,3.068-1.731,4.663-3.146l1.11,1.179c0.768,0.817,2.052,0.851,2.864,0.088c0.817-0.769,0.861-2.051,0.093-2.869
					l-1.297-1.379c0.984-1.378,1.587-2.773,1.799-4.195c0.336-2.251-0.341-4.27-2.031-6.068
					C263.857,109.677,262.944,109.034,261.988,108.663z"/>
			</g>
		</g>
		<g>
			<g>
				
					<rect x="40.832" y="380.665" transform="matrix(0.9757 -0.219 0.219 0.9757 -87.8943 34.7864)" style="fill:#5AB1B7;" width="144.296" height="66.469"/>
			</g>
			<g>
				<g>
					<path style="fill:#60C0C0;" d="M39.035,399.632l13.189,58.766l134.701-30.231l-13.189-58.766L39.035,399.632z M184.689,426.751
						L53.641,456.162l-12.369-55.113l131.048-29.411L184.689,426.751z"/>
				</g>
				<g>
					<path style="fill:#60C0C0;" d="M58.302,398.883c1.742,7.763-3.134,15.47-10.897,17.212c-0.901,0.202-1.797,0.314-2.68,0.339
						c-0.653,0.025-1.297,0.003-1.933-0.065l-3.756-16.737l18.083-4.058c0.286,0.563,0.532,1.147,0.739,1.753
						C58.034,397.831,58.182,398.347,58.302,398.883z"/>
				</g>
				<g>
					<path style="fill:#60C0C0;" d="M173.737,369.401l3.756,16.737c-0.545,0.333-1.119,0.628-1.72,0.885
						c-0.809,0.354-1.667,0.636-2.562,0.837c-7.763,1.742-15.471-3.14-17.213-10.903c-0.12-0.536-0.207-1.066-0.263-1.597
						c-0.072-0.636-0.099-1.27-0.081-1.9L173.737,369.401z"/>
				</g>
				<g>
					<path style="fill:#60C0C0;" d="M69.963,450.842c0.12,0.536,0.207,1.066,0.263,1.597c0.072,0.636,0.101,1.276,0.081,1.9
						l-18.083,4.058l-3.755-16.731c0.545-0.333,1.117-0.634,1.72-0.885c0.809-0.354,1.667-0.636,2.568-0.839
						C60.52,438.201,68.222,443.085,69.963,450.842z"/>
				</g>
				<g>
					<path style="fill:#60C0C0;" d="M183.17,411.436l3.755,16.731l-18.083,4.058c-0.285-0.557-0.532-1.147-0.739-1.753
						c-0.177-0.504-0.325-1.021-0.445-1.556c-1.741-7.757,3.142-15.465,10.905-17.207c0.895-0.201,1.791-0.312,2.674-0.338
						C181.889,411.34,182.535,411.368,183.17,411.436z"/>
				</g>
			</g>
			<g>
				
					<ellipse transform="matrix(0.2304 -0.9731 0.9731 0.2304 -315.8151 428.4644)" style="fill:#60C0C0;" cx="112.98" cy="413.9" rx="24.319" ry="24.319"/>
			</g>
			<g>
				<path style="fill:#5AB1B7;" d="M121.856,415.268c-0.614-0.821-1.464-1.495-2.536-2.031c-1.007-0.499-2.499-0.952-4.462-1.368
					c-0.135-0.03-0.268-0.054-0.403-0.084c-1.845-0.361-3.162-0.691-3.952-0.998c-0.03-0.008-0.061-0.016-0.092-0.032
					c-0.77-0.311-1.353-0.688-1.755-1.129c-0.397-0.45-0.669-1.024-0.811-1.732c-0.206-1.031,0.008-1.931,0.624-2.712
					c0.212-0.264,0.465-0.5,0.776-0.698c0.591-0.404,1.361-0.701,2.317-0.892c0.509-0.101,1.045-0.173,1.603-0.206
					c1.009-0.066,2.103-0.027,3.284,0.123c1.063,0.131,2.053-0.567,2.243-1.62l0.003-0.022c0.194-1.104-0.556-2.176-1.663-2.313
					c-1.577-0.2-3.123-0.213-4.64-0.039l-0.326-1.636c-0.11-0.55-0.429-1.001-0.866-1.293c-0.436-0.285-0.974-0.406-1.524-0.296
					c-1.093,0.218-1.81,1.283-1.59,2.383l0.357,1.787c-1.523,0.604-2.735,1.447-3.647,2.537c-1.355,1.629-1.802,3.577-1.348,5.852
					c0.362,1.815,1.181,3.267,2.457,4.356c1.215,1.037,3.062,1.805,5.544,2.31c0.135,0.03,0.27,0.061,0.403,0.084
					c1.663,0.311,2.979,0.635,3.948,0.978c0.546,0.191,0.991,0.381,1.318,0.587c0.911,0.555,1.469,1.344,1.672,2.361
					c0.225,1.127-0.008,2.11-0.712,2.952c-0.249,0.293-0.56,0.562-0.943,0.789c-0.698,0.44-1.62,0.767-2.761,0.994
					c-0.371,0.074-0.752,0.136-1.144,0.178c-0.893,0.107-1.845,0.14-2.861,0.099c-0.505-0.021-0.997-0.051-1.486-0.104
					c-0.212-0.022-0.41-0.011-0.602,0.027c-1.052,0.21-1.795,1.252-1.571,2.372c0.166,0.832,0.826,1.487,1.657,1.606
					c1.652,0.22,3.519,0.155,5.622-0.2l0.317,1.588c0.219,1.1,1.29,1.808,2.383,1.59c1.1-0.219,1.817-1.285,1.597-2.385
					l-0.371-1.856c1.565-0.648,2.815-1.513,3.747-2.607c1.477-1.732,1.971-3.803,1.488-6.223
					C122.904,417.118,122.47,416.089,121.856,415.268z"/>
			</g>
		</g>
		<g>
			<g>
				
					<rect x="34.368" y="329.3" transform="matrix(0.9653 0.2612 -0.2612 0.9653 98.3946 -15.2367)" style="fill:#5AB1B7;" width="144.296" height="66.469"/>
			</g>
			<g>
				<g>
					<path style="fill:#60C0C0;" d="M47.753,315.436l-15.732,58.137l133.259,36.06l15.732-58.137L47.753,315.436z M163.962,407.337
						L34.317,372.255l14.754-54.523l129.645,35.082L163.962,407.337z"/>
				</g>
				<g>
					<path style="fill:#60C0C0;" d="M65.146,323.757c-2.078,7.68-9.985,12.224-17.665,10.146c-0.891-0.241-1.736-0.56-2.529-0.949
						c-0.589-0.282-1.149-0.602-1.68-0.959l4.481-16.558l17.889,4.841c-0.009,0.631-0.064,1.263-0.164,1.895
						C65.4,322.7,65.29,323.227,65.146,323.757z"/>
				</g>
				<g>
					<path style="fill:#60C0C0;" d="M181.012,351.496l-4.481,16.558c-0.638,0.041-1.283,0.034-1.934-0.019
						c-0.881-0.064-1.771-0.214-2.657-0.454c-7.68-2.078-12.222-9.992-10.144-17.671c0.143-0.53,0.314-1.04,0.512-1.536
						c0.232-0.596,0.504-1.169,0.814-1.719L181.012,351.496z"/>
				</g>
				<g>
					<path style="fill:#60C0C0;" d="M51.237,375.159c-0.144,0.53-0.314,1.04-0.513,1.536c-0.232,0.596-0.506,1.175-0.814,1.719
						l-17.889-4.841l4.479-16.552c0.638-0.041,1.284-0.04,1.934,0.019c0.881,0.064,1.771,0.214,2.663,0.456
						C48.777,359.574,53.313,367.486,51.237,375.159z"/>
				</g>
				<g>
					<path style="fill:#60C0C0;" d="M169.759,393.081l-4.479,16.552l-17.889-4.841c0.008-0.625,0.064-1.263,0.164-1.895
						c0.078-0.528,0.188-1.054,0.332-1.584c2.077-7.674,9.99-12.216,17.67-10.138c0.885,0.24,1.73,0.559,2.523,0.948
						C168.67,392.398,169.229,392.724,169.759,393.081z"/>
				</g>
			</g>
			<g>
				
					<ellipse transform="matrix(0.5568 -0.8306 0.8306 0.5568 -253.9275 249.1448)" style="fill:#60C0C0;" cx="106.516" cy="362.535" rx="24.319" ry="24.319"/>
			</g>
			<g>
				<path style="fill:#5AB1B7;" d="M113.731,367.883c-0.161-1.013-0.598-2.005-1.296-2.979c-0.658-0.911-1.767-2.008-3.309-3.291
					c-0.105-0.09-0.212-0.173-0.317-0.262c-1.464-1.179-2.475-2.086-3.031-2.726c-0.023-0.021-0.046-0.043-0.067-0.071
					c-0.536-0.634-0.876-1.239-1.026-1.817c-0.142-0.583-0.114-1.218,0.091-1.91c0.299-1.008,0.907-1.705,1.816-2.109
					c0.31-0.135,0.644-0.226,1.012-0.256c0.711-0.082,1.531,0.015,2.465,0.292c0.497,0.147,1.005,0.334,1.514,0.565
					c0.923,0.412,1.873,0.957,2.848,1.64c0.879,0.611,2.08,0.455,2.739-0.388l0.013-0.018c0.686-0.886,0.523-2.185-0.393-2.822
					c-1.302-0.912-2.664-1.645-4.087-2.198l0.474-1.6c0.159-0.538,0.088-1.085-0.163-1.547c-0.253-0.455-0.673-0.813-1.21-0.973
					c-1.069-0.317-2.199,0.292-2.518,1.367l-0.518,1.747c-1.63-0.176-3.094,0.005-4.409,0.544c-1.958,0.809-3.262,2.324-3.921,4.548
					c-0.526,1.774-0.478,3.441,0.142,4.999c0.591,1.484,1.868,3.024,3.827,4.628c0.105,0.09,0.21,0.179,0.317,0.262
					c1.326,1.051,2.339,1.951,3.037,2.706c0.394,0.424,0.699,0.799,0.892,1.134c0.548,0.915,0.673,1.874,0.378,2.868
					c-0.326,1.102-0.991,1.863-2.006,2.279c-0.357,0.143-0.757,0.236-1.202,0.258c-0.823,0.063-1.79-0.077-2.906-0.408
					c-0.363-0.108-0.729-0.23-1.095-0.376c-0.84-0.322-1.697-0.737-2.577-1.246c-0.437-0.254-0.858-0.51-1.266-0.785
					c-0.177-0.118-0.357-0.201-0.545-0.257c-1.029-0.305-2.171,0.271-2.496,1.366c-0.241,0.813,0.037,1.7,0.717,2.194
					c1.359,0.965,3.041,1.778,5.067,2.444l-0.46,1.553c-0.319,1.075,0.298,2.201,1.367,2.518c1.076,0.319,2.206-0.29,2.525-1.365
					l0.538-1.815c1.687,0.156,3.195-0.026,4.53-0.559c2.114-0.843,3.517-2.445,4.218-4.811
					C113.796,370.008,113.891,368.896,113.731,367.883z"/>
			</g>
		</g>
		<g>
			<g>
				
					<rect x="40.832" y="270.341" transform="matrix(0.7972 0.6038 -0.6038 0.7972 206.2003 -6.6384)" style="fill:#5AB1B7;" width="144.296" height="66.469"/>
			</g>
			<g>
				<g>
					<path style="fill:#60C0C0;" d="M76.136,237.895l-36.363,48.012l110.051,83.349l36.363-48.012L76.136,237.895z M149.462,366.634
						L42.396,285.545l34.102-45.027l107.066,81.089L149.462,366.634z"/>
				</g>
				<g>
					<path style="fill:#60C0C0;" d="M89.147,252.125c-4.803,6.342-13.837,7.594-20.179,2.791c-0.736-0.558-1.4-1.17-1.99-1.828
						c-0.441-0.482-0.84-0.989-1.198-1.518l10.356-13.674l14.774,11.189c-0.245,0.582-0.532,1.147-0.862,1.696
						C89.778,251.241,89.479,251.687,89.147,252.125z"/>
				</g>
				<g>
					<path style="fill:#60C0C0;" d="M186.187,321.245l-10.356,13.674c-0.607-0.201-1.202-0.449-1.786-0.742
						c-0.793-0.389-1.562-0.862-2.293-1.416c-6.342-4.803-7.59-13.842-2.787-20.184c0.331-0.438,0.68-0.847,1.05-1.232
						c0.439-0.466,0.905-0.896,1.399-1.289L186.187,321.245z"/>
				</g>
				<g>
					<path style="fill:#60C0C0;" d="M56.996,294.575c-0.332,0.438-0.68,0.847-1.05,1.232c-0.439,0.466-0.909,0.9-1.399,1.289
						l-14.773-11.189l10.353-13.669c0.607,0.201,1.206,0.444,1.786,0.742c0.793,0.389,1.562,0.862,2.298,1.42
						C60.553,279.203,61.796,288.238,56.996,294.575z"/>
				</g>
				<g>
					<path style="fill:#60C0C0;" d="M160.177,355.587l-10.353,13.669l-14.774-11.189c0.241-0.577,0.532-1.147,0.862-1.696
						c0.271-0.461,0.57-0.907,0.901-1.345c4.8-6.337,13.839-7.585,20.181-2.782c0.731,0.554,1.395,1.166,1.984,1.824
						C159.423,354.546,159.819,355.057,160.177,355.587z"/>
				</g>
			</g>
			<g>
				
					<ellipse transform="matrix(0.9258 -0.3781 0.3781 0.9258 -106.3847 65.2445)" style="fill:#60C0C0;" cx="112.98" cy="303.576" rx="24.319" ry="24.319"/>
			</g>
			<g>
				<path style="fill:#5AB1B7;" d="M117.666,311.237c0.23-0.999,0.197-2.083-0.086-3.248c-0.269-1.092-0.886-2.523-1.836-4.29
					c-0.064-0.122-0.132-0.24-0.196-0.362c-0.915-1.642-1.513-2.861-1.789-3.663c-0.013-0.028-0.026-0.057-0.035-0.091
					c-0.26-0.788-0.348-1.477-0.271-2.069c0.087-0.594,0.35-1.172,0.8-1.737c0.655-0.823,1.48-1.241,2.474-1.275
					c0.338-0.009,0.682,0.032,1.034,0.142c0.69,0.191,1.414,0.587,2.176,1.194c0.406,0.323,0.807,0.686,1.192,1.091
					c0.702,0.728,1.378,1.589,2.026,2.588c0.586,0.896,1.758,1.202,2.685,0.667l0.019-0.012c0.968-0.564,1.303-1.83,0.693-2.763
					c-0.865-1.333-1.854-2.523-2.966-3.568l1.039-1.306c0.349-0.439,0.488-0.974,0.428-1.496c-0.064-0.517-0.319-1.006-0.758-1.355
					c-0.872-0.694-2.148-0.553-2.847,0.325l-1.134,1.426c-1.445-0.773-2.87-1.155-4.291-1.147c-2.118,0.017-3.895,0.933-5.339,2.749
					c-1.152,1.448-1.732,3.011-1.741,4.688c-0.007,1.597,0.599,3.504,1.815,5.725c0.064,0.122,0.128,0.245,0.196,0.362
					c0.836,1.471,1.438,2.685,1.802,3.646c0.206,0.54,0.349,1.003,0.402,1.386c0.165,1.054-0.078,1.99-0.723,2.801
					c-0.716,0.9-1.616,1.357-2.713,1.362c-0.384-0.001-0.79-0.064-1.211-0.211c-0.787-0.25-1.631-0.742-2.542-1.466
					c-0.296-0.236-0.589-0.487-0.875-0.759c-0.659-0.613-1.298-1.319-1.923-2.12c-0.31-0.399-0.604-0.794-0.88-1.202
					c-0.12-0.176-0.256-0.32-0.409-0.442c-0.84-0.668-2.115-0.562-2.826,0.332c-0.528,0.664-0.602,1.59-0.157,2.303
					c0.898,1.404,2.154,2.788,3.782,4.164l-1.008,1.267c-0.698,0.878-0.548,2.153,0.324,2.846c0.878,0.698,2.154,0.558,2.852-0.32
					l1.178-1.481c1.505,0.776,2.972,1.173,4.41,1.179c2.276,0.01,4.177-0.95,5.713-2.881
					C116.93,313.232,117.435,312.236,117.666,311.237z"/>
			</g>
		</g>
		<g>
			<g>
				<g>
					<path style="fill:#F2F2F2;" d="M324.678,435.204l-2.296,15.306c-0.24,1.602-1.617,2.787-3.237,2.787h-35.322
						c0,0,0.713-4.844,2.139-4.872c12.476-0.238,21.378-12.238,21.378-12.238L324.678,435.204z"/>
				</g>
				<g>
					<path style="fill:#F2F2F2;" d="M354.889,435.372l-0.208,14.93c-0.023,1.647,1.306,2.995,2.953,2.995h35.146
						c0,0-0.713-4.844-2.139-4.872c-12.476-0.238-21.378-12.238-21.378-12.238L354.889,435.372z"/>
				</g>
				<g>
					<polygon style="fill:#0076BE;" points="317.33,292.437 296.299,439.752 327.667,439.752 345.021,306.304 347.634,306.561 
						351.348,439.779 378.498,439.779 378.312,292.437 					"/>
				</g>
			</g>
			<g>
				<g>
					<path style="fill:#222753;" d="M303.756,321.341c0,0,19.286-85.249,8.984-112.787l21.967-8.551c0,0,0.757,4.275,1.7,9.881
						c1.347,7.995,3.097,18.718,3.585,23.684c1.515,15.267-6.121,87.773-6.121,87.773H303.756z"/>
				</g>
				<g>
					<path style="fill:#222753;" d="M387.143,319.341h-29.036l-2.293-71.415l5.807-41.021l0.875-6.144l20.031,7.793
						C372.226,236.092,387.143,319.341,387.143,319.341z"/>
				</g>
				<g>
					<path style="fill:#479AAD;" d="M362.497,200.761l-0.875,6.144l-5.807,41.021l-3.972,46.929h-9.325c0,0-1.01-46.02-2.525-61.288
						c-0.488-4.966-2.239-15.688-3.585-23.684c-0.943-5.605-1.7-9.881-1.7-9.881l12.927-5.033L362.497,200.761z"/>
				</g>
				<g>
					<polygon style="fill:#F2F2F2;" points="332.787,237.739 327.473,223.798 332.451,219.511 326.351,218.462 326.351,204.474 
						326.859,204.474 326.859,218.035 333.597,219.194 328.075,223.951 333.261,237.558 					"/>
				</g>
				<g>
					<polygon style="fill:#F2F2F2;" points="357.176,256.939 356.706,256.747 369.951,224.159 362.951,219.203 370.029,218.03 
						371.367,205.227 371.871,205.28 370.494,218.467 364.252,219.502 370.572,223.977 370.497,224.164 					"/>
				</g>
			</g>
			<g>
				<g>
					<path style="fill:#F2F2F2;" d="M362.497,200.761l-0.875,6.144l-5.807,41.021l1.916,47.576c0,0-17.995,2.826-21.448-1.289
						c1.009-14.628,5.224-45.378,3.71-60.645c-0.488-4.966-2.239-15.688-3.585-23.684c-0.943-5.605-1.7-9.881-1.7-9.881
						l12.927-5.033L362.497,200.761z"/>
				</g>
				<g>
					<path style="fill:#F29B89;" d="M362.492,200.755l-0.87,6.149c-5.103,3.978-10.888,8.009-13.989,8.531
						c-3.898,0.657-7.899-2.107-11.222-5.554c-0.951-5.611-1.706-9.878-1.706-9.878l12.929-5.029L362.492,200.755z"/>
				</g>
				<g>
					<path style="fill:#222753;" d="M346.749,218.999c-3.21,0-5.872-1.612-6.012-1.699c-0.119-0.073-0.156-0.229-0.083-0.349
						c0.074-0.12,0.233-0.157,0.349-0.084c0.042,0.026,4.217,2.545,8.245,1.242c4.102-1.327,9.544-5.832,9.599-5.877
						c0.104-0.09,0.266-0.076,0.357,0.033c0.09,0.107,0.075,0.268-0.033,0.357c-0.225,0.188-5.571,4.613-9.767,5.97
						C348.504,218.884,347.607,218.999,346.749,218.999z"/>
				</g>
			</g>
			<g>
				<g>
					<path style="fill:#222753;" d="M377.978,263.704c5.1,2.188,9.724,19.777,6.043,22.174
						C380.339,288.275,374.241,266.765,377.978,263.704z"/>
				</g>
				<g>
					<path style="fill:#F29B89;" d="M384.423,278.583c0,0-6.591,6.314-8.827,8.73c-2.116,2.286-3.864,5.481-4.899,5.093
						c-1.035-0.388-0.99-1.831-0.153-2.921c0.754-0.982,2.964-4.816,3.597-6.488c-1.148,1.265-2.657,2.463-3.929,4.026
						c-2.172,2.668-3.414,3.787-4.219,2.764c-0.408-0.518-0.534-1.552,1.988-5.335c1.015-1.522,3.492-5.044,3.492-5.044
						s-2.134,1.714-3.298,3.007s-2.845,4.381-3.88,4.51c-1.035,0.129-1.18-1.256-1.018-1.794c1.764-5.868,6.99-9.985,6.99-9.985
						s-3.352,2.322-6.456,5.232c-0.472,0.442-2.813-1.552-0.873-3.346c1.143-1.058,6.645-7.663,9.518-8.471
						c2.239-0.63,8.088-3.88,8.088-3.88L384.423,278.583z"/>
				</g>
				<g>
					<path style="fill:#222753;" d="M382.53,208.549c7.713,5.431,19.769,21.55,25.367,29.294
						c7.954,11.004,10.842,19.206,2.328,27.936c-3.332,3.417-26.204,20.1-26.204,20.1s-0.762-17.19-6.103-22.407
						c3.776-3.88,9.739-7.846,14.235-11.821c-6.706-6.57-17.197-15.554-17.197-15.554S375.603,210.291,382.53,208.549z"/>
				</g>
				<g>
					<path style="fill:#F2F2F2;" d="M376.244,224.035l-0.508-0.015c0.233-8.191,7.14-15.573,7.209-15.646l0.369,0.349
						C383.246,208.795,376.471,216.04,376.244,224.035z"/>
				</g>
				<g>
					<path style="fill:#F2F2F2;" d="M389.522,274.935l-0.498-0.102c1.325-6.461-4.758-16.735-4.819-16.839l0.436-0.26
						C384.896,258.161,390.886,268.282,389.522,274.935z"/>
				</g>
			</g>
			<g>
				<g>
					<g>
						<path style="fill:#222753;" d="M308.559,257.328l11.317-18.463c0,0,0.426-26.145-7.138-30.317
							c0,0-23.417,32.354-24.581,45.449c-0.173,1.949,0.261,5.272,0.356,7.081L308.559,257.328z"/>
					</g>
					<g>
						<path style="fill:#F2F2F2;" d="M319.629,227.211c-1.39-9.076-7.051-18.437-7.108-18.53l0.434-0.265
							c0.058,0.095,5.771,9.542,7.177,18.717L319.629,227.211z"/>
					</g>
				</g>
				<g>
					<g>
						<path style="fill:#0076BE;" d="M352.354,270.525l-26.451,8.095c-0.226,0.069-0.466-0.058-0.535-0.284l-11.958-39.072
							c-0.069-0.226,0.058-0.466,0.284-0.535l26.451-8.095c0.226-0.069,0.466,0.058,0.535,0.284l11.958,39.072
							C352.708,270.216,352.58,270.456,352.354,270.525z"/>
					</g>
					<g>
						<g>
							<path style="fill:#F29B89;" d="M333.955,243.419c0,0,4.593-2.842,6.614-3.371c2.021-0.529,4.113-1.067,4.705-0.806
								c0.973,0.428,3.798,2.085,3.589,2.711c-0.209,0.626-2.199,1.474-3.477,0.307c-0.536-0.49-1.873-0.142-1.857,0.772
								c0.016,0.914,0.409,1.029,0.986,1.101c0.577,0.072,1.99-0.993,2.808-0.891s1.304,1.433,1.267,2.548
								c1.546,0.796,0.918,2.731,0.707,3.488c0.329,0.367,0.744,0.565,0.774,1.498c0.03,0.932-0.702,1.444-0.744,1.781
								c-0.042,0.337,0.551,0.525,0.381,1.286c-0.169,0.761-0.58,1.736-2.507,2.469c-2.395,0.911-10.882,4.49-10.882,4.49
								S333.18,245.268,333.955,243.419z"/>
						</g>
						<g>
							<path style="fill:#222753;" d="M288.116,256.808c0.542,10.348,5.351,17.817,13.112,15.587
								c9.118-2.619,39.641-10.476,39.641-10.476s-8.956-15.864-5.939-20.758c-6.509,2.048-21.967,7.372-21.967,7.372
								L288.116,256.808z"/>
						</g>
						<g>
							<polygon style="fill:#F2F2F2;" points="307.42,250.647 307.258,250.165 314.412,247.767 314.574,248.249 							"/>
						</g>
						<g>
							<polygon style="fill:#222753;" points="345.831,247.431 345.608,246.975 348.276,245.665 348.499,246.121 							"/>
						</g>
						<g>
							<path style="fill:#222753;" d="M346.772,250.961l-0.26-0.436c0.244-0.146,2.564-1.417,2.662-1.472l0.244,0.445
								C349.394,249.512,347.008,250.82,346.772,250.961z"/>
						</g>
						<g>
							<path style="fill:#222753;" d="M347.179,253.873l-0.252-0.439c0.173-0.1,2.073-1.005,2.289-1.108l0.219,0.459
								C348.593,253.185,347.298,253.806,347.179,253.873z"/>
						</g>
						<g>
							<path style="fill:#F2F2F2;" d="M330.961,258.745c-4.075-5.919-3.725-15.067-3.721-15.158l0.508,0.022
								c-0.004,0.09-0.347,9.07,3.631,14.849L330.961,258.745z"/>
						</g>
					</g>
				</g>
			</g>
			<g>
				<g>
					<path style="fill:#222753;" d="M345.747,196.519c-3.461-0.401-5.622-3.253-10.167-1.545c-7.971,2.997-12.054-1.649-8.21-10.049
						c1.803-3.94,0.615-5.241-0.524-10.899c-0.724-3.595,4.783-3.989,4.783-6.694c0-3.561-0.796-11.319,5.571-9.121
						c1.79-9.103,8.394,0.046,17.267-1.771c3.59-0.735,3.49,6.976,6.692,6.763c3.123-0.208,3.417,2.848,3.986,8.471
						c0.112,1.101-0.071,4.025,4.841,8.01c5.473,4.439,2.476,15.87-9.379,14.094C355.908,193.074,353.481,197.414,345.747,196.519z"
						/>
				</g>
				<g>
					<polygon style="fill:#F29B89;" points="340.265,186.838 340.265,202.107 355.346,202.107 353.927,184.925 					"/>
				</g>
				<g>
					<path style="fill:#222753;" d="M340.265,193.925c0,0,7.955-2.176,10.215-5.522c-3.346,1.163-7.176,2.236-10.215,2.418
						C340.288,191.6,340.265,193.925,340.265,193.925z"/>
				</g>
				<g>
					<path style="fill:#F29B89;" d="M334.562,164.067c0,0-3.551,26.981,5.921,26.663c9.393-0.315,10.454-1.961,13.444-5.805
						s0.327-19.444,0.327-19.444L334.562,164.067z"/>
				</g>
				<g>
					<path style="fill:#222753;" d="M331.83,172.244c0.137,0.744,4.628-6.229,5.98-7.581c1.317,0.285,1.455,0.945,5.014,1.728
						c3.559,0.783,6.598,0.283,6.696,2.756c0.09,2.28,1.283,4.241,2.741,6.007c0.88,1.066,1.586,10.083,3.154,18.952
						c1.99,1.41,8.379-7.625,8.379-7.625s-5.125-19.379-6.264-21.934c-1.139-2.555-6.193-7.894-14.095-5.901
						C335.531,160.641,330.548,165.268,331.83,172.244z"/>
				</g>
				<g>
					<g>
						<path style="fill:#F29B89;" d="M351.841,177.255c0.117-0.02,0.997-2.267,3.268-1.876c2.022,0.348,2.133,3.677,1.467,4.408
							c-2.062,2.263-4.146,2.143-4.146,2.143L351.841,177.255z"/>
					</g>
					<g>
						<path style="fill:#222753;" d="M355.622,179.04c-0.01,0-0.02-0.001-0.029-0.002c-0.14-0.016-0.239-0.143-0.223-0.282
							c0.051-0.432-0.027-0.732-0.233-0.892c-0.428-0.336-1.359-0.093-1.682,0.028c-0.129,0.049-0.277-0.016-0.327-0.148
							c-0.05-0.131,0.017-0.277,0.147-0.327c0.145-0.055,1.448-0.519,2.174,0.047c0.355,0.277,0.497,0.731,0.424,1.352
							C355.859,178.945,355.749,179.04,355.622,179.04z"/>
					</g>
					<g>
						<path style="fill:#222753;" d="M354.046,179.578c-0.13,0-0.24-0.098-0.253-0.229c-0.015-0.151,0.076-0.272,0.275-0.539
							c0.241-0.325,0.606-0.814,0.737-1.338c0.033-0.136,0.173-0.219,0.308-0.185c0.136,0.034,0.219,0.172,0.185,0.308
							c-0.155,0.622-0.557,1.162-0.823,1.518c-0.067,0.091-0.15,0.203-0.178,0.252c-0.019,0.111-0.109,0.201-0.227,0.212
							C354.062,179.578,354.054,179.578,354.046,179.578z"/>
					</g>
				</g>
				<g>
					<path style="fill:#222753;" d="M337.792,175.199c0.011,0.594-0.341,1.081-0.787,1.09c-0.445,0.008-0.815-0.467-0.826-1.06
						c-0.011-0.594,0.341-1.081,0.787-1.09C337.412,174.13,337.782,174.605,337.792,175.199z"/>
				</g>
				<g>
					<path style="fill:#222753;" d="M345.352,175.199c0.011,0.594-0.341,1.081-0.787,1.09c-0.445,0.008-0.815-0.467-0.826-1.06
						c-0.011-0.594,0.341-1.081,0.787-1.09C344.971,174.13,345.341,174.605,345.352,175.199z"/>
				</g>
				<g>
					<path style="fill:#222753;" d="M340.895,180.846c-0.003,0-0.006,0-0.01-0.001c-0.055-0.002-1.35-0.056-2.155-0.591
						c-0.85-0.564,0.516-3.583,1.142-4.855c0.061-0.126,0.215-0.178,0.34-0.115c0.126,0.062,0.178,0.214,0.115,0.34
						c-0.986,2.004-1.614,4.01-1.315,4.208c0.688,0.457,1.881,0.506,1.893,0.507c0.14,0.005,0.249,0.123,0.244,0.263
						C341.143,180.738,341.031,180.846,340.895,180.846z"/>
				</g>
				<g>
					<path style="fill:#F2F2F2;" d="M338.172,183.104c0,0,2.45,0.522,4.359-1.025c0,0,0.217,2.69-1.856,2.846
						C339.167,185.039,338.172,183.104,338.172,183.104z"/>
				</g>
			</g>
		</g>
		<g>
			<g>
				<g>
					<path style="fill:#222753;" d="M259.504,428.327H118.291c-7.811,0-14.142-6.332-14.142-14.143V113.326
						c0-7.811,6.332-14.142,14.142-14.142h141.213c7.811,0,14.142,6.332,14.142,14.142v300.858
						C273.647,421.995,267.315,428.327,259.504,428.327z"/>
				</g>
				<g>
					<path style="fill:#F2F2F2;" d="M118.291,422.073c-4.35,0-7.889-3.538-7.889-7.889V113.326c0-4.35,3.539-7.889,7.889-7.889
						h141.212c4.35,0,7.89,3.539,7.89,7.889v300.859c0,4.35-3.539,7.889-7.89,7.889H118.291z"/>
				</g>
			</g>
			<g>
				<g>
					<g>
						<g>
							<g>
								<path style="fill:#60C0C0;" d="M149.436,159.325c-8.319,9.255-13.617,21.288-14.332,34.537h-13.669
									c0.737-17.014,7.553-32.452,18.341-44.198L149.436,159.325z"/>
							</g>
							<g>
								<path style="fill:#4B8D9C;" d="M187.495,127.123V140.8c-14.318,0.951-27.176,7.258-36.579,16.941l-9.653-9.653
									C153.135,135.929,169.398,128.089,187.495,127.123z"/>
							</g>
						</g>
						<g>
							<g>
								<path style="fill:#222753;" d="M228.36,159.325c8.319,9.255,13.618,21.288,14.332,34.537h13.669
									c-0.737-17.014-7.553-32.452-18.341-44.198L228.36,159.325z"/>
							</g>
							<g>
								<path style="fill:#375A77;" d="M190.3,127.123V140.8c14.317,0.951,27.176,7.258,36.578,16.941l9.653-9.653
									C224.661,135.929,208.398,128.089,190.3,127.123z"/>
							</g>
						</g>
					</g>
					<g>
						<path style="fill:#375A77;" d="M186.785,196.197L186.785,196.197c-0.743-0.669-0.777-1.824-0.074-2.536l18.799-19.041
							c0.197-0.2,0.517-0.209,0.726-0.021l0,0c0.209,0.188,0.233,0.507,0.055,0.724l-16.975,20.683
							C188.68,196.78,187.528,196.867,186.785,196.197z"/>
					</g>
				</g>
				<g>
					<g>
						<rect x="125.474" y="221.961" style="fill:#222753;" width="69.86" height="13.797"/>
					</g>
					<g>
						<g>
							<rect x="123.814" y="256.113" style="fill:#60C0C0;" width="38.834" height="38.834"/>
						</g>
						<g>
							<rect x="169.481" y="256.113" style="fill:#0076BE;" width="38.834" height="38.834"/>
						</g>
						<g>
							<rect x="215.148" y="256.113" style="fill:#60C0C0;" width="38.834" height="38.834"/>
						</g>
					</g>
				</g>
				<g>
					<g>
						<g>
							<path style="fill:#60C0C0;" d="M245.362,368.799c-4.968,10.982-17.894,15.856-28.876,10.887
								c-10.979-4.967-15.856-17.894-10.887-28.876c3.241-7.164,9.876-11.729,17.144-12.658l0.962,22.12l23.548,1.091
								C247.075,363.868,246.456,366.38,245.362,368.799z"/>
						</g>
						<g>
							<path style="fill:#222753;" d="M244.419,337.462l-15.801,17.19l10.45-20.491c0.106,0.044,0.215,0.093,0.32,0.14
								C241.247,335.142,242.928,336.212,244.419,337.462z"/>
						</g>
						<g>
							<path style="fill:#0076BE;" d="M252.691,359.663l-23.548-1.091l15.801-17.19
								C250.321,345.884,253.184,352.729,252.691,359.663z"/>
						</g>
						<g>
							<path style="fill:#0076BE;" d="M236.328,334.665l-10.45,20.491l-0.962-22.121
								C228.674,332.557,232.61,333.053,236.328,334.665z"/>
						</g>
					</g>
					<g>
						<g>
							<rect x="125.05" y="390.22" style="fill:#222753;" width="69.634" height="1.923"/>
						</g>
						<g>
							<g>
								<rect x="132.778" y="364.986" style="fill:#0076BE;" width="9.742" height="25.234"/>
							</g>
							<g>
								<rect x="147.59" y="348.884" style="fill:#60C0C0;" width="9.742" height="41.335"/>
							</g>
							<g>
								<rect x="162.402" y="336.876" style="fill:#222753;" width="9.742" height="53.344"/>
							</g>
							<g>
								<rect x="177.214" y="319.325" style="fill:#60C0C0;" width="9.742" height="70.895"/>
							</g>
						</g>
					</g>
				</g>
			</g>
		</g>
	</g>
</g>
</svg>
